# xmcd CD database file
#
# Track frame offsets:
#	150
#	20158
#	40710
#	55276
#	85660
#	332550
#
# Disc length: 4440 seconds
#
# Revision: 0
# Processed by: cddbd v1.5PL3 Copyright (c) Steve Scherf et al.
# Submitted via: CDex 1.51
#
DISCID=45115606
DTITLE=10,000 Promises - Sailing
DYEAR=2004
DGENRE=JPop
TTITLE0=Sailing
TTITLE1=夢の中で
TTITLE2=It's gonna be me
TTITLE3=OH MY LITTLE GIRL
TTITLE4=data
TTITLE5=data
EXTD=YEAR: 2004
EXTT0=
EXTT1=
EXTT2=
EXTT3=
EXTT4=
EXTT5=
PLAYORDER=
